<?xml version="1.0" standalone="no"?><!DOCTYPE svg PUBLIC "-//W3C//DTD SVG 1.1//EN" "http://www.w3.org/Graphics/SVG/1.1/DTD/svg11.dtd"><svg t="1766651036736" class="icon" viewBox="0 0 1024 1024" version="1.1" xmlns="http://www.w3.org/2000/svg" p-id="2454" xmlns:xlink="http://www.w3.org/1999/xlink" width="200" height="200"><path d="M864 416v-32c0-195.2-156.8-352-352-352S160 188.8 160 384v32c-54.4 0-96 41.6-96 96v128c0 54.4 41.6 96 96 96h3.2c48 108.8 144 185.6 259.2 214.4 12.8 25.6 48 41.6 89.6 41.6 54.4 0 96-25.6 96-64s-41.6-64-96-64c-32 0-57.6 9.6-76.8 22.4C352 867.2 278.4 812.8 233.6 736c48-6.4 86.4-44.8 86.4-96V512c0-54.4-41.6-96-96-96v-32c0-160 128-288 288-288s288 128 288 288v32c-54.4 0-96 41.6-96 96v128c0 54.4 41.6 96 96 96h64c54.4 0 96-41.6 96-96V512c0-54.4-41.6-96-96-96z" p-id="2455"></path></svg>