<svg t="1764921156478" class="icon" viewBox="0 0 1685 1024" version="1.1"
  xmlns="http://www.w3.org/2000/svg" p-id="4869" width="200" height="200">
  <path
    d="M1252.939162 442.174046c-14.982975 41.511656-30.054086 83.111446-45.654008 126.385805h79.321635c-9.254191-43.538764-18.067706-85.138555-26.88122-126.738345z"
    p-id="4870" fill="#f4ea2a"></path>
  <path
    d="M1577.629054 1.322027H517.098797c-136.168806 0-272.778288-2.90846-408.947095 0A107.789288 107.789288 0 0 0 0.009873 107.084207v781.935048c0 28.291383-0.881351 55.348874 14.013489 81.260609 34.108303 59.138685 95.450367 53.409901 152.914485 53.4099h1394.386204a133.877292 133.877292 0 0 0 66.101362-12.427056c41.159115-22.033787 56.14209-63.104767 56.142091-106.996072V664.186488c0-184.378733 3.437271-369.198142 0-553.576875C1682.509882 51.911603 1638.794848 1.322027 1577.629054 1.322027zM410.719671 698.823602Q380.489315 582.74961 349.730147 467.116294c-7.755893-28.996464-8.813515-67.687795-32.081194-89.192772s-68.481011-28.820194-98.535097-38.955736c7.491488-13.660948 27.145626-8.813515 40.189628-8.813515h65.836957c26.440545 0 66.277633-7.138947 87.253798 12.867732s21.328706 65.131876 26.440545 92.806312q12.779597 66.542038 25.559193 134.317969l6.698272 1.145757 95.538502-240.344554h99.94526C614.488137 455.306184 564.074832 576.668285 512.603904 698.823602z m218.927712 0c26.440545-123.38921 52.88109-245.456392 78.704689-367.78798h95.009691c-26.440545 123.829885-52.88109 245.897068-78.440283 367.78798zM987.12355 689.305006a232.676795 232.676795 0 0 1-48.209927 17.098219 346.106733 346.106733 0 0 1-54.908198 0c-27.145626 0-69.803039-4.671163-92.630042-22.033787 5.288109-24.413436 10.664353-49.179414 16.569408-75.972499 33.138816 8.284704 62.223416 22.474463 96.948665 21.152436 22.210058-0.881351 63.192902-11.105029 57.287847-41.511656-5.464379-28.467653-51.206522-41.159115-72.887769-54.555658s-42.657412-29.789681-52.88109-53.762441c-21.416841-50.237035 8.813515-105.76218 52.88109-131.145103a197.246465 197.246465 0 0 1 95.097827-26.440545c28.115113 0 72.799634 1.410162 96.067313 20.799896-5.111839 23.26768-10.399948 46.8879-15.776192 71.565741-32.52187-6.874542-109.375721-33.932033-130.968832 6.610136-20.53549 38.691331 66.806444 64.955605 89.016501 81.877555 71.653877 54.908198 39.660817 154.236512-35.606601 186.317706z m327.422082 9.606731c-4.230487-17.62703-8.372839-35.25406-12.691462-52.881089h-74.121661a193.897329 193.897329 0 0 0-36.487952 0c-12.338921 2.644054-12.515191 3.349136-18.067705 15.423651-3.525406 7.667758-5.111839 16.216868-8.813515 23.972761-6.345731 14.982975-10.047407 13.220272-25.647329 13.220272h-76.413175c0.705081-20.006679 14.277894-40.630304 21.769382-58.786145l26.440545-62.840362q27.321896-65.131876 54.555658-130.351886c9.342326-22.474463 18.420246-45.037062 27.762572-67.59966 5.905055-14.366029 11.721975-29.26087 24.589707-38.955736 27.057491-20.447355 75.355553-10.576218 106.907936-10.576218 25.823599 123.918021 51.206522 245.544527 76.941986 369.198142z"
    p-id="4871" fill="#f4ea2a"></path>
</svg>