<?xml version="1.0" standalone="no"?><!DOCTYPE svg PUBLIC "-//W3C//DTD SVG 1.1//EN" "http://www.w3.org/Graphics/SVG/1.1/DTD/svg11.dtd"><svg t="1765165067723" class="icon" viewBox="0 0 1024 1024" version="1.1" xmlns="http://www.w3.org/2000/svg" p-id="5741" xmlns:xlink="http://www.w3.org/1999/xlink" width="200" height="200"><path d="M648.533333 426.666667v68.266666h51.2c10.24 0 17.066667 6.826667 17.066667 17.066667s-6.826667 17.066667-17.066667 17.066667H648.533333v68.266666h78.506667l85.333333-85.333333-85.333333-85.333333H648.533333zM197.973333 426.666667l-51.2 102.4h88.746667l-27.306667-102.4z" fill="" p-id="5742"></path><path d="M870.4 187.733333h-716.8C71.68 187.733333 0 259.413333 0 341.333333v341.333334c0 81.92 71.68 153.6 153.6 153.6h716.8c81.92 0 153.6-71.68 153.6-153.6V341.333333c0-81.92-71.68-153.6-153.6-153.6zM546.133333 614.4c0 10.24-6.826667 17.066667-17.066666 17.066667s-17.066667-6.826667-17.066667-17.066667v-143.36l-71.68 119.466667c-6.826667 10.24-23.893333 10.24-30.72 0l-68.266667-119.466667V614.4c0 10.24-6.826667 17.066667-17.066666 17.066667H273.066667c-6.826667 0-13.653333-6.826667-17.066667-13.653334l-13.653333-54.613333H129.706667l-30.72 58.026667c-3.413333 6.826667-10.24 10.24-13.653334 10.24-3.413333 0-6.826667 0-6.826666-3.413334-10.24-3.413333-13.653333-13.653333-6.826667-20.48l102.4-204.8c3.413333-6.826667 10.24-10.24 13.653333-10.24h34.133334c6.826667 0 13.653333 6.826667 17.066666 13.653334l47.786667 191.146666H307.2V409.6c0-6.826667 6.826667-13.653333 13.653333-17.066667 6.826667-3.413333 13.653333 0 20.48 6.826667l88.746667 146.773333 88.746667-146.773333c3.413333-6.826667 10.24-10.24 20.48-6.826667 6.826667 3.413333 13.653333 10.24 13.653333 17.066667v204.8z m406.186667-13.653333c6.826667 6.826667 6.826667 17.066667 0 23.893333-3.413333 3.413333-6.826667 3.413333-13.653333 3.413333s-10.24 0-13.653334-3.413333l-88.746666-88.746667-88.746667 88.746667c-3.413333 3.413333-6.826667 3.413333-13.653333 3.413333h-102.4c-10.24 0-17.066667-6.826667-17.066667-17.066666v-204.8c0-10.24 6.826667-17.066667 17.066667-17.066667h102.4c3.413333 0 10.24 3.413333 13.653333 3.413333l88.746667 88.746667 88.746666-88.746667c6.826667-6.826667 17.066667-6.826667 23.893334 0s6.826667 17.066667 0 23.893334L860.16 512l92.16 88.746667z" fill="" p-id="5743"></path></svg>