<svg width="40" height="40" viewBox="0 0 40 40" fill="none" xmlns="http://www.w3.org/2000/svg">
<path d="M36.25 5C37.2446 5 38.1984 5.39509 38.9017 6.09835C39.6049 6.80161 40 7.75544 40 8.75V26.465C39.9991 27.4592 39.6035 28.4124 38.9 29.115L34.115 33.9025C33.412 34.605 32.4589 34.9998 31.465 35H3.75C2.75544 35 1.80161 34.6049 1.09835 33.9017C0.395088 33.1984 0 32.2446 0 31.25V8.75C0 7.75544 0.395088 6.80161 1.09835 6.09835C1.80161 5.39509 2.75544 5 3.75 5H36.25ZM37.5 8.75C37.5 8.41848 37.3683 8.10054 37.1339 7.86612C36.8995 7.6317 36.5815 7.5 36.25 7.5H3.75C3.41848 7.5 3.10054 7.6317 2.86612 7.86612C2.63169 8.10054 2.5 8.41848 2.5 8.75V31.25C2.5 31.5815 2.63169 31.8995 2.86612 32.1339C3.10054 32.3683 3.41848 32.5 3.75 32.5H31.465C31.7959 32.4999 32.1132 32.3687 32.3475 32.135L37.135 27.3475C37.3687 27.1132 37.4999 26.7959 37.5 26.465V8.75Z" fill="#D4AF37"/>
<path d="M30 13.75C30 13.4185 29.8683 13.1005 29.6339 12.8661C29.3995 12.6317 29.0815 12.5 28.75 12.5H25V18.75H30V13.75ZM30 21.25H25V27.5H28.75C29.0815 27.5 29.3995 27.3683 29.6339 27.1339C29.8683 26.8995 30 26.5815 30 26.25V21.25ZM22.5 27.5V12.5H17.5V27.5H22.5ZM15 27.5V21.25H10V26.25C10 26.5815 10.1317 26.8995 10.3661 27.1339C10.6005 27.3683 10.9185 27.5 11.25 27.5H15ZM10 18.75H15V12.5H11.25C10.9185 12.5 10.6005 12.6317 10.3661 12.8661C10.1317 13.1005 10 13.4185 10 13.75V18.75ZM28.75 10C29.7446 10 30.6984 10.3951 31.4017 11.0983C32.1049 11.8016 32.5 12.7554 32.5 13.75V26.25C32.5 27.2446 32.1049 28.1984 31.4017 28.9017C30.6984 29.6049 29.7446 30 28.75 30H11.25C10.2554 30 9.30161 29.6049 8.59835 28.9017C7.89509 28.1984 7.5 27.2446 7.5 26.25V13.75C7.5 12.7554 7.89509 11.8016 8.59835 11.0983C9.30161 10.3951 10.2554 10 11.25 10H28.75Z" fill="#D4AF37"/>
</svg>
