<?xml version="1.0" standalone="no"?><!DOCTYPE svg PUBLIC "-//W3C//DTD SVG 1.1//EN" "http://www.w3.org/Graphics/SVG/1.1/DTD/svg11.dtd"><svg t="1765164851146" class="icon" viewBox="0 0 1696 1024" version="1.1" xmlns="http://www.w3.org/2000/svg" p-id="4744" xmlns:xlink="http://www.w3.org/1999/xlink" width="331.25" height="200"><path d="M614.546 916.158h455.33V116.443h-455.33z" fill="#FF5F00" p-id="4745"></path><path d="M643.189 511.62c0-162.377 76.42-306.41 200.587-401.408C754.629 42.862 643.189 0 522.181 0 232.448 2.984 0 229.698 0 511.62c0 281.892 232.448 508.577 522.181 508.577 121.008 0 232.36-39.82 321.595-110.241-126.742-96.198-200.645-243.01-200.587-398.366" fill="#EB001B" p-id="4746"></path><path d="M1671.636 830.347v-18.374h-6.349l-6.378 15.331-6.349-15.33h-6.407v18.373h3.19v-15.33l6.377 12.287h3.19l6.377-12.288v15.331h6.35z m-35.02 0v-15.33h6.377v-3.044h-15.945v3.043h6.378v15.331h3.19z m50.965-315.597c0 281.863-232.39 508.636-522.21 508.636-120.979 0-232.36-39.849-321.595-110.241 121.008-91.985 200.616-239.031 200.616-401.38 0-162.318-76.449-306.468-200.616-401.466C932.923 42.891 1044.392 0 1165.371 0c289.762 6.144 522.21 232.887 522.21 514.75z" fill="#F79E1B" p-id="4747"></path></svg>